HIERARCHY
ROOT Hips
{
	OFFSET 0.000000 83.214638 0.000000
	CHANNELS 6 Xposition Yposition Zposition Xrotation Yrotation Zrotation
	JOINT Pelvis
	{
		OFFSET 0.000000 0.000000 0.000000
		CHANNELS 3 Xrotation Yrotation Zrotation
		JOINT LeftUpLeg
		{
			OFFSET 8.479700 -4.795502 -0.379100
			CHANNELS 3 Xrotation Yrotation Zrotation
			JOINT LeftLeg
			{
				OFFSET 0.024144 -32.555107 0.112900
				CHANNELS 3 Xrotation Yrotation Zrotation
				JOINT LeftFoot
				{
					OFFSET -0.024144 -32.638630 -3.012600
					CHANNELS 3 Xrotation Yrotation Zrotation
					JOINT LeftToeBase
					{
						OFFSET 0.970200 -13.225400 11.864200
						CHANNELS 3 Xrotation Yrotation Zrotation
						End Site
						{
							OFFSET 0.000000 12.319262 0.000000
						}
					}
					JOINT LFootTongue
					{
						OFFSET 1.142400 -1.059800 6.665200
						CHANNELS 3 Xrotation Yrotation Zrotation
						End Site
						{
							OFFSET 0.000000 12.319262 0.000000
						}
					}
				}
				JOINT LeftPantLeg
				{
					OFFSET 0.918482 -16.533964 -2.284700
					CHANNELS 3 Xrotation Yrotation Zrotation
					End Site
					{
						OFFSET 0.350399 24.744368 0.000000
					}
				}
			}
		}
		JOINT RightUpLeg
		{
			OFFSET -8.479700 -4.795502 -0.379100
			CHANNELS 3 Xrotation Yrotation Zrotation
			JOINT RightLeg
			{
				OFFSET -0.023144 -32.555092 0.112900
				CHANNELS 3 Xrotation Yrotation Zrotation
				JOINT RightFoot
				{
					OFFSET 0.023144 -32.638641 -3.012700
					CHANNELS 3 Xrotation Yrotation Zrotation
					JOINT RightToeBase
					{
						OFFSET -0.970200 -13.225400 11.864200
						CHANNELS 3 Xrotation Yrotation Zrotation
						End Site
						{
							OFFSET 0.000000 12.319244 0.000000
						}
					}
					JOINT RFootTongue
					{
						OFFSET -1.142200 -1.059800 6.665200
						CHANNELS 3 Xrotation Yrotation Zrotation
						End Site
						{
							OFFSET 0.000000 12.319243 0.000000
						}
					}
				}
				JOINT RightPantLeg
				{
					OFFSET -0.919482 -16.533978 -2.284800
					CHANNELS 3 Xrotation Yrotation Zrotation
					End Site
					{
						OFFSET -0.350400 24.744419 0.000000
					}
				}
			}
		}
	}
	JOINT Spine
	{
		OFFSET 0.000000 7.722000 1.166200
		CHANNELS 3 Xrotation Yrotation Zrotation
		JOINT Spine1
		{
			OFFSET 0.000000 12.024101 0.248800
			CHANNELS 3 Xrotation Yrotation Zrotation
			JOINT Spine2
			{
				OFFSET 0.000000 11.502998 -0.491200
				CHANNELS 3 Xrotation Yrotation Zrotation
				JOINT Neck
				{
					OFFSET 0.000000 18.430702 -3.123100
					CHANNELS 3 Xrotation Yrotation Zrotation
					JOINT Head
					{
						OFFSET 0.000000 9.051102 1.034000
						CHANNELS 3 Xrotation Yrotation Zrotation
						JOINT HairB
						{
							OFFSET 0.208400 24.786102 24.822300
							CHANNELS 3 Xrotation Yrotation Zrotation
							End Site
							{
								OFFSET 0.000000 32.263779 0.000000
							}
						}
						JOINT HairA
						{
							OFFSET -7.081100 24.428299 23.196600
							CHANNELS 3 Xrotation Yrotation Zrotation
							End Site
							{
								OFFSET 0.000000 32.263779 0.000000
							}
						}
						JOINT Hat
						{
							OFFSET 16.728800 15.048294 -15.439601
							CHANNELS 3 Xrotation Yrotation Zrotation
							End Site
							{
								OFFSET 0.000000 32.263779 0.000000
							}
						}
					}
				}
				JOINT LeftShoulder
				{
					OFFSET 6.197800 13.665199 -4.064700
					CHANNELS 3 Xrotation Yrotation Zrotation
					JOINT LeftArm
					{
						OFFSET 7.778100 -0.187103 -1.709300
						CHANNELS 3 Xrotation Yrotation Zrotation
						JOINT LeftForeArm
						{
							OFFSET 22.049376 0.000000 0.000000
							CHANNELS 3 Xrotation Yrotation Zrotation
							JOINT LeftHand
							{
								OFFSET 23.009392 0.000000 0.000000
								CHANNELS 3 Xrotation Yrotation Zrotation
								JOINT LeftHandThumb1
								{
									OFFSET 3.507191 -2.063065 3.133727
									CHANNELS 3 Xrotation Yrotation Zrotation
									JOINT LeftHandThumb2
									{
										OFFSET 3.101337 -1.790558 1.790558
										CHANNELS 3 Xrotation Yrotation Zrotation
										JOINT LeftHandThumb3
										{
											OFFSET 3.058640 -1.765907 1.765906
											CHANNELS 3 Xrotation Yrotation Zrotation
											End Site
											{
												OFFSET -0.415260 3.926476 -0.049563
											}
										}
									}
								}
								JOINT LeftHandIndex1
								{
									OFFSET 11.334419 -0.901459 3.706815
									CHANNELS 3 Xrotation Yrotation Zrotation
									JOINT LeftHandIndex2
									{
										OFFSET 3.283112 0.000000 0.000000
										CHANNELS 3 Xrotation Yrotation Zrotation
										JOINT LeftHandIndex3
										{
											OFFSET 3.323853 0.000000 0.000000
											CHANNELS 3 Xrotation Yrotation Zrotation
											End Site
											{
												OFFSET -1.135597 3.097809 0.402452
											}
										}
									}
								}
								JOINT LeftHandMiddle1
								{
									OFFSET 11.335861 0.000000 0.000000
									CHANNELS 3 Xrotation Yrotation Zrotation
									JOINT LeftHandMiddle2
									{
										OFFSET 3.410492 0.000000 0.000000
										CHANNELS 3 Xrotation Yrotation Zrotation
										JOINT LeftHandMiddle3
										{
											OFFSET 3.312172 0.000000 0.000000
											CHANNELS 3 Xrotation Yrotation Zrotation
											End Site
											{
												OFFSET -1.150200 3.080154 0.400270
											}
										}
									}
								}
								JOINT LeftHandRing1
								{
									OFFSET 11.514786 -0.013176 -3.003090
									CHANNELS 3 Xrotation Yrotation Zrotation
									JOINT LeftHandRing2
									{
										OFFSET 3.053307 0.000000 0.000000
										CHANNELS 3 Xrotation Yrotation Zrotation
										JOINT LeftHandRing3
										{
											OFFSET 3.295807 0.000000 0.000000
											CHANNELS 3 Xrotation Yrotation Zrotation
											End Site
											{
												OFFSET -1.281006 3.013344 0.375733
											}
										}
									}
								}
								JOINT LeftHandPinky1
								{
									OFFSET 10.518692 -0.960396 -5.730441
									CHANNELS 3 Xrotation Yrotation Zrotation
									JOINT LeftHandPinky2
									{
										OFFSET 2.861649 0.000000 0.000000
										CHANNELS 3 Xrotation Yrotation Zrotation
										JOINT LeftHandPinky3
										{
											OFFSET 2.863380 0.000000 0.000000
											CHANNELS 3 Xrotation Yrotation Zrotation
											End Site
											{
												OFFSET -0.843597 2.711159 0.369971
											}
										}
									}
								}
							}
							JOINT LSleeve
							{
								OFFSET 6.676277 -0.344902 -1.011730
								CHANNELS 3 Xrotation Yrotation Zrotation
								End Site
								{
									OFFSET 0.000000 14.885353 0.000000
								}
							}
						}
					}
				}
				JOINT RightShoulder
				{
					OFFSET -6.197800 13.665199 -4.064700
					CHANNELS 3 Xrotation Yrotation Zrotation
					JOINT RightArm
					{
						OFFSET -7.778100 -0.187103 -1.709300
						CHANNELS 3 Xrotation Yrotation Zrotation
						JOINT RightForeArm
						{
							OFFSET -22.049376 0.000000 0.000000
							CHANNELS 3 Xrotation Yrotation Zrotation
							JOINT RightHand
							{
								OFFSET -23.009392 0.000000 0.000000
								CHANNELS 3 Xrotation Yrotation Zrotation
								JOINT RightHandThumb1
								{
									OFFSET -3.507191 -2.063065 3.133727
									CHANNELS 3 Xrotation Yrotation Zrotation
									JOINT RightHandThumb2
									{
										OFFSET -3.101337 -1.790558 1.790558
										CHANNELS 3 Xrotation Yrotation Zrotation
										JOINT RightHandThumb3
										{
											OFFSET -3.058640 -1.765907 1.765906
											CHANNELS 3 Xrotation Yrotation Zrotation
											End Site
											{
												OFFSET 0.415260 3.926476 -0.049563
											}
										}
									}
								}
								JOINT RightHandIndex1
								{
									OFFSET -11.334419 -0.901459 3.706815
									CHANNELS 3 Xrotation Yrotation Zrotation
									JOINT RightHandIndex2
									{
										OFFSET -3.283112 0.000000 0.000000
										CHANNELS 3 Xrotation Yrotation Zrotation
										JOINT RightHandIndex3
										{
											OFFSET -3.323853 0.000000 0.000000
											CHANNELS 3 Xrotation Yrotation Zrotation
											End Site
											{
												OFFSET 1.135597 3.097809 0.402452
											}
										}
									}
								}
								JOINT RightHandMiddle1
								{
									OFFSET -11.335861 0.000000 0.000000
									CHANNELS 3 Xrotation Yrotation Zrotation
									JOINT RightHandMiddle2
									{
										OFFSET -3.410492 0.000000 0.000000
										CHANNELS 3 Xrotation Yrotation Zrotation
										JOINT RightHandMiddle3
										{
											OFFSET -3.312172 0.000000 0.000000
											CHANNELS 3 Xrotation Yrotation Zrotation
											End Site
											{
												OFFSET 1.150200 3.080154 0.400270
											}
										}
									}
								}
								JOINT RightHandRing1
								{
									OFFSET -11.514786 -0.013176 -3.003090
									CHANNELS 3 Xrotation Yrotation Zrotation
									JOINT RightHandRing2
									{
										OFFSET -3.053307 0.000000 0.000000
										CHANNELS 3 Xrotation Yrotation Zrotation
										JOINT RightHandRing3
										{
											OFFSET -3.295807 0.000000 0.000000
											CHANNELS 3 Xrotation Yrotation Zrotation
											End Site
											{
												OFFSET 1.281006 3.013344 0.375733
											}
										}
									}
								}
								JOINT RightHandPinky1
								{
									OFFSET -10.518692 -0.960396 -5.730441
									CHANNELS 3 Xrotation Yrotation Zrotation
									JOINT RightHandPinky2
									{
										OFFSET -2.861649 0.000000 0.000000
										CHANNELS 3 Xrotation Yrotation Zrotation
										JOINT RightHandPinky3
										{
											OFFSET -2.863380 0.000000 0.000000
											CHANNELS 3 Xrotation Yrotation Zrotation
											End Site
											{
												OFFSET 0.843597 2.711159 0.369971
											}
										}
									}
								}
							}
							JOINT RSleeve
							{
								OFFSET -6.676277 -0.344902 -1.011730
								CHANNELS 3 Xrotation Yrotation Zrotation
								End Site
								{
									OFFSET 0.000000 14.885353 0.000000
								}
							}
						}
					}
				}
				JOINT Backpack
				{
					OFFSET 0.000000 -2.471497 36.677502
					CHANNELS 3 Xrotation Yrotation Zrotation
					End Site
					{
						OFFSET 0.000000 20.427315 0.000000
					}
				}
				JOINT Hood
				{
					OFFSET 0.000000 18.754097 -10.431000
					CHANNELS 3 Xrotation Yrotation Zrotation
					JOINT Hood1
					{
						OFFSET 0.000000 -5.011002 -7.685901
						CHANNELS 3 Xrotation Yrotation Zrotation
						End Site
						{
							OFFSET 0.000000 9.175140 0.000000
						}
					}
				}
				JOINT LHoodieString
				{
					OFFSET 5.250500 16.397697 3.089900
					CHANNELS 3 Xrotation Yrotation Zrotation
					JOINT LHoodieString1
					{
						OFFSET 0.257700 -6.364304 3.694600
						CHANNELS 3 Xrotation Yrotation Zrotation
						JOINT LHoodieString2
						{
							OFFSET 0.000000 -9.643799 2.679100
							CHANNELS 3 Xrotation Yrotation Zrotation
							End Site
							{
								OFFSET 0.000000 10.009018 0.000000
							}
						}
					}
				}
				JOINT RHoodieString
				{
					OFFSET -5.250500 16.397697 3.089900
					CHANNELS 3 Xrotation Yrotation Zrotation
					JOINT RHoodieString1
					{
						OFFSET -0.257700 -6.364304 3.694600
						CHANNELS 3 Xrotation Yrotation Zrotation
						JOINT RHoodieString2
						{
							OFFSET 0.000000 -9.643799 2.679100
							CHANNELS 3 Xrotation Yrotation Zrotation
							End Site
							{
								OFFSET 0.000000 10.009018 0.000000
							}
						}
					}
				}
			}
			JOINT LBackpack_Strap
			{
				OFFSET 15.223200 -7.719803 -6.610900
				CHANNELS 3 Xrotation Yrotation Zrotation
				End Site
				{
					OFFSET 0.000000 16.040596 0.000000
				}
			}
			JOINT RBackpack_Strap
			{
				OFFSET -15.223000 -7.719803 -6.610900
				CHANNELS 3 Xrotation Yrotation Zrotation
				End Site
				{
					OFFSET 0.000000 16.040596 0.000000
				}
			}
		}
	}
	JOINT BoyFacialAnim_Joint
	{
		OFFSET 1.000000 -82.208099 -1.550900
		CHANNELS 3 Xrotation Yrotation Zrotation
		End Site
		{
			OFFSET 0.000000 30.012791 0.000000
		}
	}
}
MOTION
Frames: 4
Frame Time: 0.033333
-0.049750 75.076248 2.944914 -4.367585 -33.826136 -7.434528 0.000000 0.000001 -0.000000 -36.258930 6.029889 23.565626 43.904128 -6.533569 2.225994 -5.381980 0.984116 -11.127878 -0.000000 -0.000002 -0.000000 -0.000000 -0.000002 -0.000000 -0.000001 -0.000000 0.000001 -9.849298 -11.923745 -9.440888 42.512911 -9.119900 -0.445787 -24.109343 -7.151102 15.956983 -0.000000 0.000000 0.000000 -0.000000 0.000000 0.000000 0.000002 0.000001 0.000000 10.607995 2.124799 -1.437102 7.868451 2.110784 -1.242875 7.869379 2.103088 -1.249481 9.434584 4.184645 -1.775702 -9.995370 21.950567 -0.885136 0.000001 0.000000 0.000000 0.000001 0.000000 0.000000 0.000001 0.000000 0.000000 0.252723 8.065754 -7.701243 -0.705420 6.388082 -48.817729 0.000011 -30.076799 0.000006 -80.904328 -10.419312 -3.598732 -19.977856 -8.471506 -19.062515 18.411526 43.377063 -9.896034 0.000001 0.000000 0.000001 7.609552 6.842755 -96.090305 6.473128 6.869149 -86.592162 -0.000005 0.000002 0.000000 6.715092 6.879218 -88.613542 5.853461 6.804388 -81.390085 -0.000002 -0.000003 0.000002 7.851956 6.812700 -98.129328 6.885118 6.881206 -90.032828 -0.000000 -0.000000 -0.000002 11.455845 6.566772 -94.169287 5.558089 2.666906 -78.923061 -0.000004 -0.000000 0.000001 -0.000001 0.000000 -0.000001 0.884555 -0.607937 7.608294 -24.800328 15.037959 50.760456 0.000001 27.863786 0.000013 -26.976015 18.784147 5.453313 -14.829625 1.921692 -2.256341 7.972677 -17.383475 0.411426 -0.000000 0.000002 0.000003 -1.463895 -5.821231 81.904651 5.912543 -6.870976 81.406825 0.000000 -0.000001 0.000002 5.041336 -6.818327 85.408688 6.380528 -6.925104 85.301987 0.000000 -0.000002 0.000005 5.276782 -6.836300 85.367106 6.065219 -6.892167 82.681147 0.000000 0.000002 0.000004 5.783622 -6.869207 76.150674 6.696338 -6.943708 87.917211 0.000005 -0.000000 0.000000 -0.000001 0.000000 -0.000003 0.000000 -0.000000 -0.000000 0.000000 -0.000000 -0.000000 0.000000 -0.000000 -0.000000 0.000000 -0.000000 -0.000000 0.000000 -0.000000 -0.000000 0.000001 0.000000 -0.000000 0.000000 -0.000000 -0.000000 0.000000 -0.000000 -0.000000 0.000001 0.000000 -0.000000 -0.000001 0.000001 -0.000000 -0.000001 0.000001 -0.000000 0.000000 0.000001 -0.000000 
-0.355226 75.181442 2.433308 -6.141838 -34.984014 -8.126855 -0.000000 0.000000 -0.000000 -34.267998 6.974435 24.319051 42.693726 -6.237374 2.076591 -4.788526 0.966734 -11.698832 -0.000000 -0.000002 0.000000 -0.000000 -0.000002 -0.000000 -0.000000 0.000000 0.000001 -9.206253 -11.979581 -9.514022 42.852627 -9.129935 -0.853411 -24.346853 -5.730540 15.716789 -0.000000 -0.000000 0.000000 -0.000000 -0.000000 0.000000 -0.000000 -0.000002 0.000003 10.264449 2.078814 -1.144638 7.664110 2.054261 -1.084780 7.665822 2.044367 -1.090345 8.925618 4.328185 -1.567491 -10.371780 22.705267 -0.698136 0.000001 -0.000000 -0.000000 0.000001 -0.000000 -0.000000 0.000001 -0.000000 -0.000000 0.289390 6.616864 -7.000299 -5.860249 4.175741 -46.778661 -0.000004 -32.767167 0.000014 -71.300939 -11.009395 -3.809584 -18.891354 -8.371911 -17.770233 18.578605 43.598013 -10.019826 -0.000003 -0.000000 -0.000000 7.603822 6.843339 -96.042329 6.470829 6.869026 -86.572832 0.000000 0.000000 0.000002 6.708224 6.879027 -88.556141 5.851051 6.804026 -81.369936 0.000001 0.000000 0.000007 7.833033 6.815351 -97.969788 6.880933 6.881201 -89.997844 0.000002 0.000000 -0.000006 11.427319 6.586484 -93.920087 5.560717 2.667412 -78.945253 -0.000001 0.000001 -0.000000 -0.000001 -0.000000 -0.000001 1.044158 1.896418 7.884509 -27.691672 22.629062 51.001507 -0.000002 32.678839 0.000006 -24.564500 19.044277 5.993488 -14.833103 1.886863 -2.134682 7.974348 -17.387652 0.411784 -0.000000 -0.000000 0.000001 -1.199780 -5.895622 82.188547 5.941492 -6.875273 81.648703 -0.000003 0.000001 -0.000001 5.194715 -6.835523 85.642629 6.410647 -6.927502 85.551746 0.000000 -0.000002 -0.000002 5.525237 -6.866663 86.026752 6.108139 -6.897515 83.038749 0.000001 0.000001 0.000001 5.752017 -6.853479 77.247431 6.724160 -6.944660 88.147280 -0.000002 0.000002 -0.000003 0.000001 0.000001 -0.000003 -0.000001 0.000002 -0.000000 -0.000001 0.000002 -0.000000 -0.000001 0.000002 -0.000000 -0.000001 0.000002 -0.000000 -0.000001 0.000002 -0.000000 -0.000002 0.000000 -0.000000 -0.000001 0.000002 -0.000000 -0.000001 0.000002 -0.000000 -0.000002 0.000000 -0.000000 0.000000 -0.000002 -0.000000 0.000000 -0.000002 -0.000000 -0.000000 0.000000 -0.000000 
-0.631656 75.205070 1.918510 -7.823054 -35.859518 -8.744313 0.000000 0.000001 0.000000 -32.584886 7.865761 24.973006 41.711965 -6.223927 1.839929 -4.236789 0.932699 -12.099333 -0.000000 -0.000000 -0.000000 -0.000000 -0.000000 -0.000000 -0.000000 -0.000002 -0.000000 -8.743845 -12.055614 -9.716732 43.521317 -9.114328 -1.132704 -24.733011 -4.611100 15.451109 -0.000000 -0.000000 0.000000 -0.000000 -0.000000 0.000000 -0.000000 -0.000001 -0.000002 10.010039 2.029036 -0.856171 7.543655 2.001047 -0.962654 7.546118 1.989025 -0.967188 8.487734 4.363556 -1.212417 -10.975098 22.960608 -0.348135 0.000002 0.000000 -0.000000 0.000002 0.000000 -0.000000 0.000002 0.000000 -0.000000 0.314282 5.533175 -6.479214 -10.373461 1.797460 -45.104459 0.000002 -37.881250 -0.000043 -62.374715 -11.694971 -3.253615 -17.467531 -8.305846 -15.803060 18.738556 43.807491 -10.138501 -0.000001 0.000002 0.000000 7.596602 6.844088 -95.981718 6.464321 6.868636 -86.518539 -0.000001 0.000002 -0.000005 6.697638 6.878768 -88.467670 5.850534 6.803930 -81.365387 -0.000000 0.000001 0.000004 7.811036 6.818370 -97.784383 6.875150 6.881202 -89.949480 -0.000003 0.000000 -0.000002 11.395978 6.607951 -93.647351 5.568840 2.668981 -79.014258 -0.000002 -0.000001 -0.000000 0.000001 0.000005 -0.000003 1.267644 4.977245 8.104632 -31.988836 27.936268 51.928863 -0.000001 37.084386 0.000005 -23.573959 19.182754 6.484709 -14.741334 1.743896 -2.104953 7.983333 -17.409922 0.413689 -0.000001 -0.000003 -0.000002 -0.897823 -5.974442 82.488577 5.973082 -6.879808 81.912628 0.000001 0.000001 0.000000 5.363492 -6.853953 85.944270 6.441256 -6.929778 85.805406 -0.000000 0.000000 0.000002 5.765830 -6.892389 86.731422 6.151777 -6.902649 83.402067 -0.000001 0.000000 0.000000 5.743845 -6.845882 78.515579 6.750322 -6.945451 88.363489 0.000003 -0.000001 0.000000 0.000001 0.000000 0.000002 -0.000000 0.000000 -0.000000 -0.000000 0.000000 -0.000000 -0.000000 0.000000 -0.000000 -0.000000 0.000000 -0.000000 -0.000000 0.000000 -0.000000 -0.000000 0.000000 -0.000000 -0.000000 0.000000 -0.000000 -0.000000 0.000000 -0.000000 -0.000000 0.000000 -0.000000 0.000000 0.000000 0.000000 0.000000 0.000000 0.000000 0.000000 0.000001 0.000000 
-0.899878 75.213791 1.423053 -9.391495 -36.486795 -9.329736 0.000001 0.000001 0.000000 -31.044569 8.643889 25.444980 40.764242 -6.266153 1.714151 -3.668130 0.899577 -12.502315 -0.000000 -0.000000 0.000000 -0.000000 -0.000000 0.000000 -0.000000 0.000001 -0.000001 -8.274021 -12.163804 -9.881659 44.183005 -8.868614 -1.320843 -25.113730 -4.020605 15.031926 -0.000000 -0.000000 0.000000 -0.000000 -0.000000 0.000000 -0.000000 -0.000001 0.000000 9.845514 2.001039 -0.605076 7.464452 1.971731 -0.849776 7.467224 1.958996 -0.853961 8.164089 4.325718 -0.807068 -11.633676 22.821796 0.162388 0.000001 0.000000 0.000000 0.000001 0.000000 0.000000 0.000001 0.000000 0.000000 0.339399 4.627517 -6.164574 -14.686915 -0.989918 -43.627478 0.000001 -44.298776 0.000020 -55.174364 -12.196875 -2.435781 -15.821015 -8.074516 -13.529240 18.887899 44.001271 -10.249382 0.000000 0.000000 0.000000 7.588181 6.844983 -95.910992 6.457835 6.868244 -86.464068 -0.000001 0.000001 -0.000003 6.684313 6.878389 -88.356447 5.851383 6.804056 -81.372668 0.000001 -0.000001 -0.000000 7.787076 6.821582 -97.582769 6.869218 6.881186 -89.900104 0.000000 0.000000 -0.000002 11.367953 6.626970 -93.404264 5.580087 2.671140 -79.109245 0.000000 0.000000 -0.000000 0.000002 -0.000002 0.000002 1.547658 8.359264 8.246129 -37.431865 30.899926 53.796762 0.000036 41.209929 -0.000044 -23.130183 18.583019 6.457048 -14.597096 1.549521 -2.145477 8.001084 -17.453956 0.417465 -0.000001 0.000001 -0.000003 -0.584390 -6.054590 82.814370 6.000931 -6.883673 82.145148 0.000000 0.000001 0.000000 5.522977 -6.869923 86.230086 6.468945 -6.931765 86.034880 0.000002 0.000000 0.000001 5.978913 -6.911731 87.409838 6.188928 -6.906820 83.710894 -0.000001 0.000000 0.000000 5.750712 -6.844814 79.814736 6.772232 -6.946043 88.544872 -0.000001 -0.000003 0.000002 0.000000 -0.000002 -0.000001 0.000000 -0.000005 0.000001 0.000000 -0.000005 0.000001 0.000000 -0.000005 0.000001 0.000000 -0.000005 0.000001 0.000000 -0.000005 0.000001 -0.000001 -0.000001 0.000000 0.000000 -0.000005 0.000001 0.000000 -0.000005 0.000001 -0.000001 -0.000001 0.000000 -0.000000 -0.000002 -0.000000 -0.000000 -0.000002 -0.000000 0.000001 0.000001 0.000000 
